<svg width="324" height="31" viewBox="0 0 324 31" fill="none" xmlns="http://www.w3.org/2000/svg">
<rect y="15" width="324" height="1" rx="0.5" fill="#D4D4D4"/>
<path d="M16.5666 9.87742C14.6904 13.3375 11.4071 15.0675 10 15.5C11.4071 15.9326 14.6904 17.6626 16.5666 21.1227C18.9118 25.4478 19.3808 35.3955 21.257 27.6103C23.1331 19.8251 24.5402 16.7976 25.9474 18.5277C27.3545 20.2577 29.2306 27.1778 29.6997 27.6103C30.1687 28.0429 29.6997 24.5827 29.6997 21.1227C29.6997 17.6626 31.5759 15.9327 32.0449 18.5277C32.5139 21.1227 32.983 25.0154 33.452 26.3129C33.9211 27.6103 34.3901 25.4478 34.3901 22.4203C34.3901 19.3927 36.7353 18.5277 37.2043 19.3927C37.6734 20.2577 36.7353 20.6902 38.1424 19.3927C39.5495 18.0952 38.1424 17.2301 43.3019 17.2301H51.2755H60.1873C62.0635 17.2301 63.0015 15.9327 63.9396 18.5277C64.6901 20.6037 65.8158 22.2761 66.2848 22.8528C66.5975 22.2761 67.2229 20.7767 67.2229 19.3927C67.2229 17.6626 70.0372 15.9326 70.5062 16.7976C70.9752 17.6626 70.5062 19.3927 72.3824 19.8252C74.2585 20.2577 74.2585 21.5552 75.6656 19.3927C77.0728 17.2301 76.1347 16.3651 79.887 16.7976C83.6393 17.2301 84.5774 17.6626 85.9845 17.6626C87.3916 17.6626 93.4892 17.6626 95.3653 17.2301C97.2415 16.7976 99.5867 15.9326 102.401 17.6626C105.215 19.3927 104.746 21.9877 106.622 19.8252C108.498 17.6626 109.906 17.6626 113.189 17.2301C116.472 16.7976 118.348 15.5001 120.693 17.6626C123.039 19.8252 123.508 21.1227 124.915 23.7178C126.322 26.3128 125.384 23.7177 125.853 21.1227C126.322 18.5277 127.729 17.6626 129.136 17.6626C130.543 17.6626 132.889 17.6626 135.234 18.5277C137.579 19.3927 137.11 22.4203 139.924 19.8252C142.738 17.2301 147.898 16.7976 151.181 17.2301C154.464 17.6626 164.314 20.2577 169.005 18.5277C173.695 16.7976 185.421 14.6351 187.766 19.8252C190.111 25.0153 191.519 34.0981 191.519 27.6104C191.519 20.6902 191.519 16.3651 193.395 21.9877C195.271 27.6104 195.74 31.9355 195.74 25.8803C195.74 19.8252 194.802 13.7701 195.74 18.9602C196.678 24.1503 198.554 28.4754 197.616 23.7178C196.678 18.9602 206.059 14.2026 215.909 17.6626C225.758 21.1227 232.325 15.0676 236.546 19.3927C240.768 23.7178 241.706 33.233 241.706 25.8803C241.706 18.5277 243.113 15.9326 244.051 22.8528C244.989 29.7729 245.927 27.1779 245.927 22.8528C245.927 18.5277 247.803 21.5552 248.272 25.4478C248.741 29.3404 247.803 16.7976 256.715 17.2301C265.627 17.6626 270.317 28.0429 271.255 30.2054C272.193 32.368 269.379 21.9877 270.317 19.8252C271.255 17.6626 275.008 20.6902 276.415 23.7178C277.822 26.7454 276.415 21.9878 277.822 20.2577C279.229 18.5277 283.45 17.2301 287.203 19.8252C290.955 22.4203 299.398 15.5 313 15.5C299.398 15.5 290.955 8.57984 287.203 11.1749C283.45 13.77 279.229 12.4724 277.822 10.7424C276.415 9.01235 277.822 4.25474 276.415 7.28231C275.008 10.3099 271.255 13.3375 270.317 11.1749C269.379 9.01235 272.193 -1.36789 271.255 0.794657C270.317 2.95721 265.627 13.3375 256.715 13.77C247.803 14.2025 248.741 1.65968 248.272 5.55227C247.803 9.44486 245.927 12.4724 245.927 8.14733C245.927 3.82223 244.989 1.22717 244.051 8.14733C243.113 15.0675 241.706 12.4724 241.706 5.11976C241.706 -2.23291 240.768 7.28231 236.546 11.6074C232.325 15.9325 225.758 9.87742 215.909 13.3375C206.059 16.7975 196.678 12.0399 197.616 7.28231C198.554 2.5247 196.678 6.8498 195.74 12.0399C194.802 17.23 195.74 11.1749 195.74 5.11976C195.74 -0.935383 195.271 3.38972 193.395 9.01235C191.519 14.635 191.519 10.3099 191.519 3.38972C191.519 -3.09798 190.111 5.98478 187.766 11.1749C185.421 16.365 173.695 14.2025 169.005 12.4724C164.314 10.7424 154.464 13.3375 151.181 13.77C147.898 14.2025 142.738 13.77 139.924 11.1749C137.11 8.57984 137.579 11.6074 135.234 12.4724C132.889 13.3375 130.543 13.3375 129.136 13.3375C127.729 13.3375 126.322 12.4724 125.853 9.87742C125.384 7.2824 126.322 4.68725 124.915 7.28231C123.508 9.87737 123.039 11.1749 120.693 13.3375C118.348 15.5 116.472 14.2025 113.189 13.77C109.906 13.3375 108.498 13.3375 106.622 11.1749C104.746 9.01235 105.215 11.6074 102.401 13.3375C99.5867 15.0675 97.2415 14.2025 95.3653 13.77C93.4892 13.3375 87.3916 13.3375 85.9845 13.3375C84.5774 13.3375 83.6393 13.77 79.887 14.2025C76.1347 14.635 77.0728 13.77 75.6656 11.6074C74.2585 9.44486 74.2585 10.7424 72.3824 11.1749C70.5062 11.6074 70.9752 13.3375 70.5062 14.2025C70.0372 15.0675 67.2229 13.3375 67.2229 11.6074C67.2229 10.2234 66.5975 8.72401 66.2848 8.14733C65.8158 8.72403 64.6901 10.3964 63.9396 12.4724C63.0015 15.0674 62.0635 13.77 60.1873 13.77H51.2755H43.3019C38.1424 13.77 39.5495 12.9049 38.1424 11.6074C36.7353 10.3099 37.6734 10.7424 37.2043 11.6074C36.7353 12.4724 34.3901 11.6074 34.3901 8.57984C34.3901 5.55227 33.9211 3.38976 33.452 4.68725C32.983 5.98473 32.5139 9.87742 32.0449 12.4724C31.5759 15.0674 29.6997 13.3375 29.6997 9.87742C29.6997 6.41738 30.1687 2.95721 29.6997 3.38976C29.2306 3.82232 27.3545 10.7424 25.9474 12.4724C24.5402 14.2025 23.1331 11.1749 21.257 3.38976C19.3808 -4.39542 18.9118 5.55231 16.5666 9.87742Z" fill="#1078D8"/>
</svg>
