<svg width="64" height="64" viewBox="0 0 64 64" fill="none" xmlns="http://www.w3.org/2000/svg">
<path fill-rule="evenodd" clip-rule="evenodd" d="M2 32C2 15.4315 15.4315 2 32 2C48.5685 2 62 15.4315 62 32C62 48.5685 48.5685 62 32 62C15.4315 62 2 48.5685 2 32ZM32 0C14.3269 0 0 14.3269 0 32C0 49.6731 14.3269 64 32 64C49.6731 64 64 49.6731 64 32C64 14.3269 49.6731 0 32 0ZM27.1833 41.7866L41.3293 33.1782C42.2236 32.634 42.2236 31.366 41.3293 30.8218L27.1833 22.2134C26.2328 21.635 25 22.3003 25 23.3916V40.6084C25 41.6997 26.2328 42.365 27.1833 41.7866Z" fill="white"/>
</svg>
