<svg width="43" height="52" viewBox="0 0 43 52" fill="none" xmlns="http://www.w3.org/2000/svg">
<path fill-rule="evenodd" clip-rule="evenodd" d="M21.4116 6.62964C13.4119 6.62964 6.91406 13.133 6.91406 21.171C6.91406 25.4035 8.71285 29.2086 11.5921 31.8691L7.52019 36.2758C3.46147 32.5255 0.914062 27.1435 0.914062 21.171C0.914062 9.83343 10.084 0.629639 21.4116 0.629639C32.7391 0.629639 41.9091 9.83343 41.9091 21.171C41.9091 26.8806 39.5806 32.052 35.8287 35.7726L31.6038 31.5122C34.2646 28.8737 35.9091 25.2184 35.9091 21.171C35.9091 13.133 29.4112 6.62964 21.4116 6.62964Z" fill="#005FB7"/>
<path fill-rule="evenodd" clip-rule="evenodd" d="M21.3874 1C10.2589 1 1.23602 10.0372 1.23602 21.1869C1.23602 23.4227 1.59887 25.5736 2.2688 27.5838C2.42255 27.557 2.58072 27.5431 2.74215 27.5431C4.25741 27.5431 5.4843 28.7733 5.4843 30.2891C5.4843 31.0974 5.13535 31.8246 4.57981 32.3273C6.72648 35.5709 9.78379 38.1572 13.3865 39.7201C12.6416 38.6428 12.0127 37.3103 11.6925 35.7064C11.3459 33.9707 11.0846 32.3338 10.848 30.8517C10.7216 30.0597 10.6022 29.3119 10.4807 28.6168C10.1259 26.588 9.75254 25.0104 9.14833 23.9099C8.80748 23.2891 8.62331 22.7455 8.6183 22.2914C8.61294 21.8052 8.82232 21.3804 9.26952 21.1863C9.65856 21.0174 10.1141 21.0775 10.5165 21.2197C10.935 21.3675 11.3779 21.6314 11.798 21.9875C13.4277 23.3688 14.3216 25.2619 14.4512 26.8195C14.4879 27.2614 14.7375 27.8068 15.0863 28.3442C15.1558 28.4514 15.2277 28.5558 15.3002 28.6562C15.4197 26.9355 15.6406 24.5355 15.946 23.3118C16.1659 22.4306 16.2261 21.1859 16.2409 19.8073C16.2457 19.3618 16.2457 18.9021 16.2457 18.4412C16.2457 17.5054 16.2458 16.5644 16.2857 15.7254C16.3107 15.1985 16.2972 14.5298 16.2822 13.7847C16.2801 13.6825 16.278 13.5789 16.276 13.4741C16.2594 12.6159 16.2478 11.6849 16.3008 10.8274C16.3532 9.98027 16.4709 9.15183 16.7401 8.5212C17.0151 7.87693 17.5066 7.32907 18.3192 7.32907C19.012 7.32907 19.5304 7.62131 19.8798 8.10223C20.0255 8.30278 20.1379 8.53038 20.2252 8.77256C20.2469 8.14796 20.2712 7.61477 20.2985 7.20481C20.3619 6.25213 20.6187 5.50973 21.0181 5.00097C21.4231 4.48501 21.9781 4.21295 22.5609 4.25702C23.7384 4.34604 24.5468 5.60121 24.4832 7.2572C24.4306 8.62691 24.5749 12.0223 24.7602 15.4594C24.8814 13.6708 24.9808 11.9079 25.0179 10.5344C25.0486 9.39651 25.2483 8.49186 25.563 7.8507C25.8665 7.23231 26.3476 6.73658 26.9824 6.72334C27.6263 6.7099 28.1159 7.19693 28.422 7.81627C28.738 8.45586 28.9371 9.36945 28.9677 10.5348C29.0345 13.0785 29.0267 17.2615 29.0025 20.5556C29.5496 18.7239 30.1333 16.7043 30.4609 15.3917C30.6524 14.6246 30.9715 14.0338 31.3917 13.6777C31.831 13.3053 32.3891 13.195 32.9002 13.4573C33.3744 13.7006 33.6982 14.2096 33.8679 14.8328C34.0406 15.467 34.0735 16.2804 33.9179 17.2472C33.4948 19.8749 33.2558 22.9856 33.0215 26.0354C32.9311 27.2115 32.8415 28.3786 32.7422 29.5055C32.5607 31.5662 32.0181 33.7042 31.4356 35.4697C30.8554 37.2282 30.2223 38.6568 29.8409 39.2936C29.8281 39.315 29.7964 39.3915 29.7618 39.5535C36.7113 36.3685 41.5388 29.3421 41.5388 21.1869C41.5388 15.9286 39.532 11.1401 36.2439 7.54791C35.7867 7.89001 35.2192 8.09264 34.6043 8.09264C33.089 8.09264 31.8622 6.8624 31.8622 5.34664C31.8622 4.90509 31.9663 4.48778 32.1513 4.11805C29.0372 2.1432 25.3455 1 21.3874 1ZM32.7565 3.3177C29.4732 1.21734 25.5723 0 21.3874 0C9.70501 0 0.236016 9.48649 0.236016 21.1869C0.236016 23.5458 0.620887 25.8147 1.33116 27.934C0.533399 28.4143 0 29.2896 0 30.2891C0 31.8048 1.22689 33.0351 2.74215 33.0351C3.08974 33.0351 3.42215 32.9703 3.72806 32.8523C6.31784 36.7779 10.1773 39.7893 14.7202 41.2995C15.5826 42.1415 16.4622 42.7164 17.1393 43.0389L17.7295 49.6605L18.0009 49.7791C23.3551 52.1195 27.9703 50.7708 29.6695 49.7495L29.9344 49.5903L29.9104 49.2822C29.7345 47.0204 29.51 42.985 29.6357 40.7022C37.2187 37.4825 42.5388 29.9573 42.5388 21.1869C42.5388 15.6385 40.4095 10.5879 36.9246 6.81072C37.1918 6.38685 37.3465 5.88474 37.3465 5.34664C37.3465 3.83087 36.1196 2.60063 34.6043 2.60063C33.8922 2.60063 33.2438 2.87234 32.7565 3.3177ZM32.9929 4.68185C32.9086 4.88671 32.8622 5.11119 32.8622 5.34664C32.8622 6.31173 33.6429 7.09264 34.6043 7.09264C34.9494 7.09264 35.2712 6.99203 35.542 6.81841C34.7533 6.03867 33.9007 5.32363 32.9929 4.68185ZM36.1956 6.05854C35.3974 5.27457 34.5375 4.55346 33.6238 3.90323C33.9032 3.71225 34.2409 3.60063 34.6043 3.60063C35.5657 3.60063 36.3465 4.38154 36.3465 5.34664C36.3465 5.60027 36.2925 5.84118 36.1956 6.05854ZM4.03595 31.4584C4.31457 31.149 4.4843 30.739 4.4843 30.2891C4.4843 29.324 3.70351 28.5431 2.74215 28.5431C2.70026 28.5431 2.65871 28.5446 2.61755 28.5475C3.01359 29.5602 3.48894 30.533 4.03595 31.4584ZM1.68256 28.9031C2.10065 29.9735 2.60316 31.0015 3.18189 31.979C3.04139 32.0156 2.89403 32.0351 2.74215 32.0351C1.7808 32.0351 1 31.2542 1 30.2891C1 29.724 1.26768 29.2221 1.68256 28.9031ZM21.8047 5.61845C21.5661 5.92238 21.3509 6.45075 21.2963 7.27122C21.1088 10.0875 21.0614 18.8934 21.0614 22.96L20.0619 22.983C19.9438 20.4201 19.6844 14.8997 19.5902 13.2961C19.5674 12.9077 19.5658 12.4649 19.5641 12.0205C19.5636 11.8712 19.563 11.7216 19.5617 11.5739C19.5562 10.9723 19.5377 10.3846 19.4618 9.86676C19.3848 9.34069 19.2561 8.94507 19.0708 8.68999C18.9076 8.46534 18.6885 8.32907 18.3192 8.32907C18.0697 8.32907 17.8531 8.46093 17.6598 8.9138C17.4607 9.38031 17.3498 10.0664 17.2989 10.8891C17.2487 11.7013 17.2592 12.5951 17.2758 13.4547C17.2778 13.5583 17.2799 13.6615 17.282 13.7642C17.297 14.5022 17.3113 15.2093 17.2845 15.7729C17.2457 16.5889 17.2458 17.487 17.2458 18.4074C17.2458 18.8745 17.2459 19.3473 17.2408 19.818C17.2261 21.1878 17.1683 22.5437 16.9162 23.5539C16.5525 25.0111 16.3016 28.4117 16.2224 29.96L16.1648 31.0847L15.3692 30.2877C15.072 29.99 14.6303 29.4785 14.2475 28.8886C13.8725 28.3109 13.5123 27.5954 13.4546 26.9024C13.3482 25.623 12.59 23.9697 11.1514 22.7504C10.8046 22.4564 10.4656 22.2622 10.1834 22.1626C9.88522 22.0572 9.72119 22.0804 9.6677 22.1036C9.65131 22.1107 9.64806 22.1155 9.64397 22.1228C9.63708 22.1349 9.61712 22.179 9.61824 22.2803C9.62061 22.4948 9.71671 22.8673 10.0249 23.4286C10.7188 24.6924 11.1125 26.4247 11.4657 28.4446C11.5922 29.1678 11.7136 29.9287 11.841 30.7271C12.0752 32.1952 12.3296 33.7901 12.6731 35.5107C13.1174 37.7357 14.2134 39.3814 15.3413 40.5075C16.2709 41.4356 17.2105 41.9988 17.7993 42.2379L18.0821 42.3528L18.6726 48.9783C23.309 50.9006 27.2641 49.879 28.8891 49.0398C28.7095 46.6234 28.4929 42.5204 28.6582 40.3223C28.6831 39.992 28.7172 39.6935 28.764 39.4441C28.808 39.2091 28.8722 38.9647 28.983 38.7797C29.3096 38.2344 29.9156 36.8851 30.486 35.1564C31.054 33.4347 31.5736 31.3761 31.7461 29.4177C31.8429 28.3184 31.9312 27.1687 32.0208 26.0028C32.2563 22.9376 32.5004 19.7599 32.9306 17.0882C33.0699 16.2227 33.0291 15.5585 32.9031 15.0955C32.774 14.6217 32.5742 14.414 32.4437 14.347C32.35 14.2989 32.2221 14.2847 32.0382 14.4405C31.8351 14.6127 31.5938 14.9824 31.4312 15.6338C30.8607 17.9196 29.5347 22.2831 28.9452 24.1728L27.9679 24.0173C28.0073 21.0216 28.0622 14.1433 27.9681 10.561C27.9397 9.48035 27.7552 8.72422 27.5255 8.25927C27.2857 7.77409 27.0673 7.72178 27.0032 7.72312C26.9299 7.72465 26.7029 7.79781 26.4607 8.29134C26.2296 8.7621 26.0458 9.5124 26.0175 10.5614C25.9226 14.0784 25.4255 20.0902 25.1895 22.6513L24.1928 22.6389C23.9184 18.5563 23.3883 9.71115 23.484 7.21883C23.5384 5.80134 22.8717 5.28336 22.4855 5.25417C22.2866 5.23913 22.0376 5.3217 21.8047 5.61845ZM22.6765 25.149L29.1924 34.4536H16.4379L22.6765 25.149ZM22.6945 26.9179L21.0269 29.405C22.1428 29.0335 23.3572 29.0476 24.4656 29.4471L22.6945 26.9179ZM20.467 30.7619C21.8255 29.9281 23.5455 29.9281 24.904 30.7619C23.5455 31.5958 21.8255 31.5958 20.467 30.7619ZM19.6676 31.4324C21.5089 32.7295 23.9873 32.7052 25.8047 31.3592L27.2713 33.4536H18.3124L19.6676 31.4324Z" fill="white"/>
</svg>
