<svg width="52" height="52" viewBox="0 0 52 52" fill="none" xmlns="http://www.w3.org/2000/svg">
<path fill-rule="evenodd" clip-rule="evenodd" d="M25.4997 13.5C18.8722 13.5 13.4997 18.8726 13.4997 25.5H7.49966C7.49966 15.5589 15.5585 7.5 25.4997 7.5V13.5ZM25.4997 37.5C32.1271 37.5 37.4997 32.1274 37.4997 25.5H43.4997C43.4997 35.4411 35.4408 43.5 25.4997 43.5V37.5Z" fill="#005FB7"/>
<path fill-rule="evenodd" clip-rule="evenodd" d="M25.679 5.55225C14.5631 5.55225 5.5519 14.5635 5.5519 25.6794C5.5519 36.7953 14.5631 45.8065 25.679 45.8065C36.795 45.8065 45.8062 36.7953 45.8062 25.6794C45.8062 14.5635 36.795 5.55225 25.679 5.55225ZM4.5519 25.6794C4.5519 14.0112 14.0108 4.55225 25.679 4.55225C37.3472 4.55225 46.8062 14.0112 46.8062 25.6794C46.8062 37.3476 37.3472 46.8065 25.679 46.8065C14.0108 46.8065 4.5519 37.3476 4.5519 25.6794Z" fill="white"/>
<path d="M17.6044 14.2453C17.4587 14.3728 17.2949 14.4608 17.1128 14.5093C16.9368 14.5518 16.694 14.5731 16.3844 14.5731V14.0086H16.5301C16.8579 14.0086 17.1097 13.9449 17.2858 13.8174C17.4618 13.6839 17.568 13.4745 17.6044 13.1892H18.2235V19.5623H17.6044V14.2453Z" fill="white"/>
<path d="M34.293 35.9571H31.3068V35.3926L34.3477 31.1135H34.9121V35.3926H35.7497V35.9571H34.9121V37.4866H34.293V35.9571ZM34.293 35.3926V32.1605L31.9714 35.3926H34.293Z" fill="white"/>
<path d="M48.5826 25.6794C48.5826 22.6717 47.9902 19.6934 46.8392 16.9147C45.6882 14.1359 44.0011 11.6111 41.8744 9.48433C39.7476 7.35756 37.2228 5.67052 34.444 4.51953C31.6653 3.36853 28.687 2.77612 25.6793 2.77612L25.6793 25.6794H48.5826Z" fill="#005FB7"/>
<path d="M2.77561 25.6793C2.77561 28.687 3.36802 31.6652 4.51902 34.444C5.67001 37.2227 7.35705 39.7476 9.48382 41.8743C11.6106 44.0011 14.1354 45.6881 16.9142 46.8391C19.6929 47.9901 22.6712 48.5825 25.6789 48.5825L25.6789 25.6793L2.77561 25.6793Z" fill="#005FB7"/>
<path d="M31.6095 19.0524L34.268 16.5305C34.5351 16.2756 34.7323 16.0267 34.8598 15.7839C34.9873 15.5412 35.051 15.262 35.051 14.9463C35.051 14.5579 34.9296 14.2483 34.6868 14.0177C34.444 13.781 34.1405 13.6626 33.7764 13.6626C33.3515 13.6626 33.0146 13.7901 32.7658 14.045C32.523 14.2999 32.3864 14.6216 32.3561 15.0101H31.737C31.7552 14.6338 31.8523 14.303 32.0283 14.0177C32.2104 13.7263 32.4532 13.5018 32.7567 13.344C33.0602 13.1801 33.4031 13.0981 33.7855 13.0981C34.1314 13.0981 34.4471 13.174 34.7323 13.3258C35.0237 13.4714 35.2513 13.6808 35.4152 13.954C35.5851 14.221 35.6701 14.5306 35.6701 14.8826C35.6701 15.2771 35.5881 15.6352 35.4243 15.9569C35.2665 16.2786 35.0176 16.6003 34.6777 16.922L32.4653 18.9978H35.8158V19.5623H31.6095V19.0524Z" fill="white"/>
<path d="M17.3382 37.5776C16.8769 37.5776 16.4763 37.4775 16.1364 37.2772C15.7965 37.0708 15.5325 36.7947 15.3444 36.4487C15.1623 36.1027 15.0591 35.7234 15.0348 35.3107H15.6539C15.6903 35.8144 15.8481 36.2241 16.1273 36.5397C16.4065 36.8554 16.8071 37.0132 17.3291 37.0132C17.6265 37.0132 17.8997 36.9434 18.1485 36.8038C18.3974 36.6642 18.5946 36.4669 18.7403 36.212C18.892 35.951 18.9679 35.6475 18.9679 35.3015C18.9679 34.9556 18.886 34.6582 18.7221 34.4093C18.5582 34.1605 18.3367 33.9723 18.0575 33.8448C17.7843 33.7113 17.4869 33.6445 17.1652 33.6445H17.0469V33.0801L18.54 31.678H15.3535V31.1135H19.2593V31.7053L17.7115 33.1529C18.2517 33.25 18.6978 33.4807 19.0499 33.8448C19.408 34.209 19.587 34.6885 19.587 35.2833C19.587 35.7082 19.4869 36.0967 19.2866 36.4487C19.0863 36.8007 18.8131 37.0769 18.4672 37.2772C18.1273 37.4775 17.751 37.5776 17.3382 37.5776Z" fill="white"/>
<path fill-rule="evenodd" clip-rule="evenodd" d="M25.1789 2.98023e-08L25.6789 0C29.0511 -1.19209e-07 32.3904 0.664216 35.5059 1.95472C38.6215 3.24523 41.4523 5.13676 43.8369 7.5213C46.2214 9.90585 48.113 12.7367 49.4035 15.8523C50.694 18.9678 51.3582 22.3071 51.3582 25.6793V26.1793H25.1789L25.1789 2.98023e-08ZM26.1789 1.00507L26.1789 25.1793H50.3531C50.2909 22.1087 49.656 19.0751 48.4796 16.235C47.2393 13.2407 45.4215 10.5201 43.1298 8.22841C40.8381 5.93672 38.1175 4.11886 35.1232 2.8786C32.2831 1.70217 29.2495 1.06728 26.1789 1.00507Z" fill="white"/>
<path fill-rule="evenodd" clip-rule="evenodd" d="M26.1793 51.3586L25.6793 51.3586C22.3071 51.3586 18.9678 50.6944 15.8523 49.4039C12.7367 48.1134 9.90585 46.2219 7.52131 43.8373C5.13676 41.4528 3.24523 38.6219 1.95472 35.5064C0.664217 32.3908 1.95015e-06 29.0516 2.24496e-06 25.6793L2.28867e-06 25.1793L26.1793 25.1793L26.1793 51.3586ZM25.1793 50.3536L25.1793 26.1793L1.00507 26.1793C1.06729 29.2499 1.70217 32.2835 2.87861 35.1237C4.11886 38.1179 5.93673 40.8385 8.22841 43.1302C10.5201 45.4219 13.2407 47.2398 16.235 48.48C19.0751 49.6565 22.1087 50.2914 25.1793 50.3536Z" fill="white"/>
</svg>
