<svg width="27" height="23" viewBox="0 0 27 23" fill="none" xmlns="http://www.w3.org/2000/svg">
<path d="M1.314 20.9514C2.94085 19.6478 4.25484 17.9096 5.25598 15.7368C6.31969 13.502 6.82027 11.2362 6.7577 8.93927C6.13199 9.31174 5.4437 9.49798 4.69285 9.49798C3.31628 9.49798 2.19 9.06343 1.314 8.19433C0.438006 7.32524 0 6.20783 0 4.8421C0 3.4143 0.438006 2.26586 1.314 1.39676C2.25257 0.465586 3.504 0 5.06828 0C6.82027 0 8.19684 0.651823 9.19798 1.95547C10.1991 3.19703 10.6997 4.96626 10.6997 7.26316C10.6997 10.1808 9.94883 13.0364 8.44712 15.83C6.94541 18.6235 5.03699 20.7031 2.72186 22.0688L1.314 20.9514ZM17.1758 20.9514C18.8027 19.6478 20.1167 17.9096 21.1178 15.7368C22.1815 13.502 22.6821 11.2362 22.6195 8.93927C21.9938 9.31174 21.3055 9.49798 20.5546 9.49798C19.1781 9.49798 18.0518 9.06343 17.1758 8.19433C16.2998 7.32524 15.8618 6.20783 15.8618 4.8421C15.8618 3.4143 16.2998 2.26586 17.1758 1.39676C18.1144 0.465586 19.3658 0 20.9301 0C22.6821 0 24.0586 0.651823 25.0598 1.95547C26.0609 3.19703 26.5615 4.96626 26.5615 7.26316C26.5615 10.1808 25.8106 13.0364 24.3089 15.83C22.8072 18.6235 20.8988 20.7031 18.5837 22.0688L17.1758 20.9514Z" fill="#DDDDDD"/>
</svg>
