<svg width="27" height="23" viewBox="0 0 27 23" fill="none" xmlns="http://www.w3.org/2000/svg">
<path d="M9.38568 1.11741C7.75883 2.42105 6.41355 4.19028 5.34984 6.4251C4.3487 8.59784 3.87942 10.8327 3.94199 13.1296C4.5677 12.7571 5.25598 12.5709 6.00684 12.5709C7.44598 12.5709 8.57226 13.0054 9.38568 13.8745C10.2617 14.6815 10.6997 15.7989 10.6997 17.2267C10.6997 18.6545 10.2304 19.834 9.29183 20.7652C8.41583 21.6343 7.19569 22.0688 5.63141 22.0688C3.87942 22.0688 2.50285 21.448 1.50171 20.2065C0.50057 18.9028 0 17.1026 0 14.8057C0 11.888 0.750854 9.03239 2.25256 6.23886C3.75427 3.44534 5.6627 1.36572 7.97783 0L9.38568 1.11741ZM25.2475 1.11741C23.6206 2.42105 22.2754 4.19028 21.2116 6.4251C20.2105 8.59784 19.7412 10.8327 19.8038 13.1296C20.4295 12.7571 21.1178 12.5709 21.8686 12.5709C23.3078 12.5709 24.4341 13.0054 25.2475 13.8745C26.1235 14.6815 26.5615 15.7989 26.5615 17.2267C26.5615 18.6545 26.0922 19.834 25.1536 20.7652C24.2776 21.6343 23.0575 22.0688 21.4932 22.0688C19.7412 22.0688 18.3647 21.448 17.3635 20.2065C16.3624 18.9028 15.8618 17.1026 15.8618 14.8057C15.8618 11.888 16.6127 9.03239 18.1144 6.23886C19.6161 3.44534 21.5245 1.36572 23.8396 0L25.2475 1.11741Z" fill="#DDDDDD"/>
</svg>
