<svg width="400" height="42" viewBox="0 0 400 42" fill="none" xmlns="http://www.w3.org/2000/svg">
<rect width="400" height="42" rx="20" fill="#F3F3F3"/>
<rect x="56" y="20" width="324" height="1" rx="0.5" fill="#D4D4D4"/>
<path d="M72.5666 14.8774C70.6904 18.3375 67.4071 20.0675 66 20.5C67.4071 20.9326 70.6904 22.6626 72.5666 26.1227C74.9118 30.4478 75.3808 40.3955 77.257 32.6103C79.1331 24.8251 80.5402 21.7976 81.9474 23.5277C83.3545 25.2577 85.2306 32.1778 85.6997 32.6103C86.1687 33.0429 85.6997 29.5827 85.6997 26.1227C85.6997 22.6626 87.5759 20.9327 88.0449 23.5277C88.5139 26.1227 88.983 30.0154 89.452 31.3129C89.9211 32.6103 90.3901 30.4478 90.3901 27.4203C90.3901 24.3927 92.7353 23.5277 93.2043 24.3927C93.6734 25.2577 92.7353 25.6902 94.1424 24.3927C95.5495 23.0952 94.1424 22.2301 99.3019 22.2301H107.276H116.187C118.063 22.2301 119.002 20.9327 119.94 23.5277C120.69 25.6037 121.816 27.2761 122.285 27.8528C122.598 27.2761 123.223 25.7767 123.223 24.3927C123.223 22.6626 126.037 20.9326 126.506 21.7976C126.975 22.6626 126.506 24.3927 128.382 24.8252C130.259 25.2577 130.259 26.5552 131.666 24.3927C133.073 22.2301 132.135 21.3651 135.887 21.7976C139.639 22.2301 140.577 22.6626 141.985 22.6626C143.392 22.6626 149.489 22.6626 151.365 22.2301C153.241 21.7976 155.587 20.9326 158.401 22.6626C161.215 24.3927 160.746 26.9877 162.622 24.8252C164.498 22.6626 165.906 22.6626 169.189 22.2301C172.472 21.7976 174.348 20.5001 176.693 22.6626C179.039 24.8252 179.508 26.1227 180.915 28.7178C182.322 31.3128 181.384 28.7177 181.853 26.1227C182.322 23.5277 183.729 22.6626 185.136 22.6626C186.543 22.6626 188.889 22.6626 191.234 23.5277C193.579 24.3927 193.11 27.4203 195.924 24.8252C198.738 22.2301 203.898 21.7976 207.181 22.2301C210.464 22.6626 220.314 25.2577 225.005 23.5277C229.695 21.7976 241.421 19.6351 243.766 24.8252C246.111 30.0153 247.519 39.0981 247.519 32.6104C247.519 25.6902 247.519 21.3651 249.395 26.9877C251.271 32.6104 251.74 36.9355 251.74 30.8803C251.74 24.8252 250.802 18.7701 251.74 23.9602C252.678 29.1503 254.554 33.4754 253.616 28.7178C252.678 23.9602 262.059 19.2026 271.909 22.6626C281.758 26.1227 288.325 20.0676 292.546 24.3927C296.768 28.7178 297.706 38.233 297.706 30.8803C297.706 23.5277 299.113 20.9326 300.051 27.8528C300.989 34.7729 301.927 32.1779 301.927 27.8528C301.927 23.5277 303.803 26.5552 304.272 30.4478C304.741 34.3404 303.803 21.7976 312.715 22.2301C321.627 22.6626 326.317 33.0429 327.255 35.2054C328.193 37.368 325.379 26.9877 326.317 24.8252C327.255 22.6626 331.008 25.6902 332.415 28.7178C333.822 31.7454 332.415 26.9878 333.822 25.2577C335.229 23.5277 339.45 22.2301 343.203 24.8252C346.955 27.4203 355.398 20.5 369 20.5C355.398 20.5 346.955 13.5798 343.203 16.1749C339.45 18.77 335.229 17.4724 333.822 15.7424C332.415 14.0123 333.822 9.25474 332.415 12.2823C331.008 15.3099 327.255 18.3375 326.317 16.1749C325.379 14.0124 328.193 3.63211 327.255 5.79466C326.317 7.95721 321.627 18.3375 312.715 18.77C303.803 19.2025 304.741 6.65968 304.272 10.5523C303.803 14.4449 301.927 17.4724 301.927 13.1473C301.927 8.82223 300.989 6.22717 300.051 13.1473C299.113 20.0675 297.706 17.4724 297.706 10.1198C297.706 2.76709 296.768 12.2823 292.546 16.6074C288.325 20.9325 281.758 14.8774 271.909 18.3375C262.059 21.7975 252.678 17.0399 253.616 12.2823C254.554 7.5247 252.678 11.8498 251.74 17.0399C250.802 22.23 251.74 16.1749 251.74 10.1198C251.74 4.06462 251.271 8.38972 249.395 14.0124C247.519 19.635 247.519 15.3099 247.519 8.38972C247.519 1.90202 246.111 10.9848 243.766 16.1749C241.421 21.365 229.695 19.2025 225.005 17.4724C220.314 15.7424 210.464 18.3375 207.181 18.77C203.898 19.2025 198.738 18.77 195.924 16.1749C193.11 13.5798 193.579 16.6074 191.234 17.4724C188.889 18.3375 186.543 18.3375 185.136 18.3375C183.729 18.3375 182.322 17.4724 181.853 14.8774C181.384 12.2824 182.322 9.68725 180.915 12.2823C179.508 14.8774 179.039 16.1749 176.693 18.3375C174.348 20.5 172.472 19.2025 169.189 18.77C165.906 18.3375 164.498 18.3375 162.622 16.1749C160.746 14.0124 161.215 16.6074 158.401 18.3375C155.587 20.0675 153.241 19.2025 151.365 18.77C149.489 18.3375 143.392 18.3375 141.985 18.3375C140.577 18.3375 139.639 18.77 135.887 19.2025C132.135 19.635 133.073 18.77 131.666 16.6074C130.259 14.4449 130.259 15.7424 128.382 16.1749C126.506 16.6074 126.975 18.3375 126.506 19.2025C126.037 20.0675 123.223 18.3375 123.223 16.6074C123.223 15.2234 122.598 13.724 122.285 13.1473C121.816 13.724 120.69 15.3964 119.94 17.4724C119.002 20.0674 118.063 18.77 116.187 18.77H107.276H99.3019C94.1424 18.77 95.5495 17.9049 94.1424 16.6074C92.7353 15.3099 93.6734 15.7424 93.2043 16.6074C92.7353 17.4724 90.3901 16.6074 90.3901 13.5798C90.3901 10.5523 89.9211 8.38976 89.452 9.68725C88.983 10.9847 88.5139 14.8774 88.0449 17.4724C87.5759 20.0674 85.6997 18.3375 85.6997 14.8774C85.6997 11.4174 86.1687 7.95721 85.6997 8.38976C85.2306 8.82232 83.3545 15.7424 81.9474 17.4724C80.5402 19.2025 79.1331 16.1749 77.257 8.38976C75.3808 0.604582 74.9118 10.5523 72.5666 14.8774Z" fill="#1078D8"/>
<rect x="6" y="6" width="30" height="30" rx="15" fill="white"/>
<path d="M27.2071 19.5858L18.5811 14.2562C17.4575 13.5619 16 14.3605 16 15.6704V26.3296C16 27.6395 17.4575 28.4381 18.5811 27.7438L27.2071 22.4142C28.2643 21.761 28.2643 20.239 27.2071 19.5858Z" fill="#1078D8"/>
</svg>
