<svg width="19" height="18" viewBox="0 0 19 18" fill="none" xmlns="http://www.w3.org/2000/svg">
<path d="M8.53233 0.696453C8.83691 -0.23215 10.1631 -0.232151 10.4677 0.696452L12.0128 5.40721C12.149 5.82249 12.5397 6.10366 12.9805 6.10366H17.9806C18.9662 6.10366 19.376 7.35309 18.5786 7.927L14.5335 10.8384C14.1768 11.0951 14.0276 11.55 14.1638 11.9653L15.709 16.676C16.0135 17.6047 14.9406 18.3768 14.1432 17.8029L10.0981 14.8915C9.74144 14.6349 9.25856 14.6349 8.90195 14.8915L4.85677 17.8029C4.05936 18.3768 2.98646 17.6047 3.29104 16.6761L4.83617 11.9653C4.97238 11.55 4.82316 11.0951 4.46655 10.8384L0.421365 7.927C-0.376038 7.35309 0.033773 6.10366 1.01942 6.10366H6.01954C6.46033 6.10366 6.851 5.82249 6.98721 5.40721L8.53233 0.696453Z" fill="#FFE815"/>
</svg>
