<svg width="24" height="24" viewBox="0 0 24 24" fill="none" xmlns="http://www.w3.org/2000/svg">
<path fill-rule="evenodd" clip-rule="evenodd" d="M17.32 4.60711C17.2043 3.79763 16.0356 3.79763 15.92 4.60711C15.7786 5.59689 14.9855 6.36562 13.9917 6.47604L13.6524 6.51374C12.7825 6.61039 12.7825 7.87489 13.6524 7.97154C14.8303 8.10242 15.7602 9.03229 15.8911 10.2102C15.9877 11.0801 17.2522 11.0801 17.3489 10.2102C17.4798 9.03229 18.4096 8.10242 19.5876 7.97154C20.4574 7.87489 20.4574 6.61039 19.5876 6.51374L19.2482 6.47604C18.2545 6.36562 17.4614 5.59689 17.32 4.60711ZM14.8678 7.28753C15.6356 7.00056 16.2631 6.42768 16.62 5.69502C16.9769 6.42768 17.6044 7.00056 18.3722 7.28753C17.5883 7.65366 16.9624 8.29796 16.62 9.09497C16.2776 8.29796 15.6517 7.65366 14.8678 7.28753ZM7.68723 9.48874C6.70309 11.3738 7.00259 13.7546 8.58578 15.3379C10.169 16.9209 12.5498 17.2204 14.4348 16.2363C14.2052 16.6762 13.9055 17.0891 13.5356 17.4592C11.5829 19.4116 8.41708 19.4116 6.46451 17.4592C4.51187 15.5066 4.51187 12.3405 6.46451 10.3879C6.8345 10.018 7.24741 9.71848 7.68723 9.48874ZM9.29294 8.97385C9.62552 8.64109 9.47067 7.92844 9.00674 8.00583C7.81686 8.20456 6.67538 8.76291 5.75735 9.68088C3.41422 12.0241 3.41422 15.823 5.75735 18.1662C8.10056 20.5093 11.8995 20.5093 14.2426 18.1662C15.1607 17.2483 15.719 16.1067 15.9177 14.917C15.9952 14.4529 15.2824 14.2981 14.9498 14.6306C13.3877 16.1928 10.855 16.1928 9.29294 14.6306C7.7308 13.0686 7.7308 10.5359 9.29294 8.97385Z" fill="#1078D8"/>
</svg>
