<svg width="24" height="24" viewBox="0 0 24 24" fill="none" xmlns="http://www.w3.org/2000/svg">
<path fill-rule="evenodd" clip-rule="evenodd" d="M12.4361 5.29492C12.245 4.95508 11.7557 4.95508 11.5645 5.29492L8.41854 10.8877C10.5761 9.45972 13.4256 9.46021 15.5828 10.8889L12.4361 5.29492ZM4.27441 18.2551L6.86031 13.658C9.45168 17.0256 14.5489 17.0254 17.1399 13.6572L19.7263 18.2551C19.9137 18.5884 19.6729 19.0002 19.2905 19.0002H4.7102C4.32778 19.0002 4.08691 18.5884 4.27441 18.2551ZM10.693 4.80469C11.2664 3.78516 12.7342 3.78516 13.3077 4.80469L20.5979 17.7649C21.1603 18.7649 20.4377 20.0002 19.2905 20.0002H4.7102C3.56295 20.0002 2.84039 18.7649 3.40282 17.7649L10.693 4.80469ZM16.3831 13.0002C14.1907 15.9114 9.80889 15.9114 7.61648 13.0002C9.80889 10.0894 14.1907 10.0894 16.3831 13.0002ZM12 15.0002C13.1046 15.0002 14 14.1047 14 13.0002C14 11.8958 13.1046 11.0002 12 11.0002C10.8954 11.0002 9.99999 11.8958 9.99999 13.0002C9.99999 14.1047 10.8954 15.0002 12 15.0002Z" fill="#1078D8"/>
</svg>
