<svg width="24" height="24" viewBox="0 0 24 24" fill="none" xmlns="http://www.w3.org/2000/svg">
<path fill-rule="evenodd" clip-rule="evenodd" d="M12 12H19C19 15.866 15.866 19 12 19V12ZM12 12H5C5 8.13401 8.13401 5 12 5V12ZM4 12C4 16.4183 7.58172 20 12 20C16.4183 20 20 16.4183 20 12C20 9.80397 19.1152 7.81461 17.6826 6.36898L17.6569 6.34315L17.631 6.31742C16.1854 4.88483 14.196 4 12 4C7.58172 4 4 7.58172 4 12ZM18.9282 11C18.8452 10.4247 18.6906 9.86065 18.4672 9.32122C18.1154 8.47194 17.5998 7.70026 16.9497 7.05025C16.2997 6.40024 15.5281 5.88463 14.6788 5.53284C14.1393 5.3094 13.5753 5.15484 13 5.0718V11H18.9282ZM5.53284 14.6788C5.3094 14.1393 5.15484 13.5753 5.0718 13H11L11 18.9282C10.4247 18.8452 9.86065 18.6906 9.32122 18.4672C8.47194 18.1154 7.70026 17.5998 7.05025 16.9497C6.40024 16.2997 5.88463 15.5281 5.53284 14.6788ZM7.64645 8.14645L9.14645 6.64645L10 7V11H9V8.20711L8.35355 8.85355L7.64645 8.14645ZM14 14.5C14 14.2239 14.2239 14 14.5 14C14.7761 14 15 14.2239 15 14.5C15 14.6574 14.9259 14.8056 14.8 14.9L13.2 16.1L13.5 17H16V16H15L15.4 15.7C15.7777 15.4167 16 14.9721 16 14.5C16 13.6716 15.3284 13 14.5 13C13.6716 13 13 13.6716 13 14.5H14Z" fill="#1078D8"/>
</svg>
