<svg width="24" height="24" viewBox="0 0 24 24" fill="none" xmlns="http://www.w3.org/2000/svg">
<path fill-rule="evenodd" clip-rule="evenodd" d="M15 5H9C8.44772 5 8 5.44772 8 6V15C8 15.5479 8.44058 15.9928 8.98676 15.9999H9.81352L9.8135 16H15C15.5523 16 16 15.5523 16 15V8.2292L15.9997 8.22912V7.19385L16 7.19392V6C16 5.44772 15.5523 5 15 5ZM17 7.46187V6C17 4.89543 16.1046 4 15 4H9C7.89543 4 7 4.89543 7 6V7.52173L5.03169 8.04914C3.96475 8.33502 3.33159 9.4317 3.61747 10.4986L5.94684 19.192C6.23273 20.2589 7.3294 20.8921 8.39633 20.6062L12.1117 19.6106L15.8263 20.606C16.8932 20.8918 17.9899 20.2587 18.2758 19.1917L20.6051 10.4984C20.891 9.43148 20.2578 8.33481 19.1909 8.04893L17 7.46187ZM17 8.49715V15C17 16.1046 16.1046 17 15 17H9.55559C9.49551 17.4871 9.80192 17.9565 10.2895 18.0871L16.0851 19.64C16.6186 19.783 17.1669 19.4664 17.3098 18.9329L19.6392 10.2396C19.7821 9.70613 19.4656 9.15779 18.9321 9.01485L17 8.49715ZM8.55532 16.9504C7.66478 16.7482 7 15.9517 7 15V8.55701L5.29051 9.01506C4.75704 9.15801 4.44046 9.70634 4.5834 10.2398L6.91277 18.9331C7.05571 19.4666 7.60405 19.7832 8.13752 19.6402L10.1798 19.093L10.0307 19.053C9.07939 18.7981 8.47293 17.8987 8.55532 16.9504Z" fill="#1078D8"/>
</svg>
