<svg width="30" height="30" viewBox="0 0 30 30" fill="none" xmlns="http://www.w3.org/2000/svg">
<rect width="30" height="30" rx="15" fill="#1078D8"/>
<path d="M20.6578 17.1863L18.0327 15.9675C17.9206 15.9157 17.796 15.9048 17.6776 15.9364C17.5592 15.968 17.4536 16.0404 17.3765 16.1427L16.214 17.6814C14.3895 16.7495 12.9212 15.1588 12.061 13.1823L13.4813 11.9229C13.5759 11.8396 13.6429 11.7251 13.6721 11.5968C13.7013 11.4685 13.6911 11.3334 13.643 11.212L12.518 8.36819C12.4653 8.23728 12.3721 8.13039 12.2544 8.06596C12.1368 8.00153 12.002 7.9836 11.8735 8.01526L9.43595 8.62464C9.312 8.65565 9.20141 8.73126 9.12224 8.83912C9.04306 8.94698 8.99997 9.08073 9 9.21854C9 15.7314 13.8727 21 19.8752 21C20.0024 21.0001 20.126 20.9534 20.2256 20.8677C20.3252 20.7819 20.395 20.662 20.4236 20.5277L20.9861 17.8871C21.0152 17.7471 20.9983 17.6006 20.9383 17.4727C20.8784 17.3448 20.7792 17.2435 20.6578 17.1863Z" fill="white"/>
</svg>
