<svg width="44" height="52" viewBox="0 0 44 52" fill="none" xmlns="http://www.w3.org/2000/svg">
<path fill-rule="evenodd" clip-rule="evenodd" d="M21.9116 7.12964C13.9119 7.12964 7.41406 13.633 7.41406 21.671C7.41406 25.9035 9.21285 29.7086 12.0921 32.3691L8.02019 36.7758C3.96147 33.0255 1.41406 27.6435 1.41406 21.671C1.41406 10.3334 10.584 1.12964 21.9116 1.12964C33.2391 1.12964 42.4091 10.3334 42.4091 21.671C42.4091 27.3806 40.0806 32.552 36.3287 36.2726L32.1038 32.0122C34.7646 29.3737 36.4091 25.7184 36.4091 21.671C36.4091 13.633 29.9112 7.12964 21.9116 7.12964Z" fill="white"/>
<path fill-rule="evenodd" clip-rule="evenodd" d="M21.8874 1.5C10.7589 1.5 1.73602 10.5372 1.73602 21.6869C1.73602 23.9227 2.09887 26.0736 2.7688 28.0838C2.92255 28.057 3.08072 28.0431 3.24215 28.0431C4.75741 28.0431 5.9843 29.2733 5.9843 30.7891C5.9843 31.5974 5.63535 32.3246 5.07981 32.8273C7.22648 36.0709 10.2838 38.6572 13.8865 40.2201C13.1416 39.1428 12.5127 37.8103 12.1925 36.2064C11.8459 34.4707 11.5846 32.8338 11.348 31.3517C11.2216 30.5597 11.1022 29.8119 10.9807 29.1168C10.6259 27.088 10.2525 25.5104 9.64833 24.4099C9.30748 23.7891 9.12331 23.2455 9.1183 22.7914C9.11294 22.3052 9.32232 21.8804 9.76952 21.6863C10.1586 21.5174 10.6141 21.5775 11.0165 21.7197C11.435 21.8675 11.8779 22.1314 12.298 22.4875C13.9277 23.8688 14.8216 25.7619 14.9512 27.3195C14.9879 27.7614 15.2375 28.3068 15.5863 28.8442C15.6558 28.9514 15.7277 29.0558 15.8002 29.1562C15.9197 27.4355 16.1406 25.0355 16.446 23.8118C16.6659 22.9306 16.7261 21.6859 16.7409 20.3073C16.7457 19.8618 16.7457 19.4021 16.7457 18.9412C16.7457 18.0054 16.7458 17.0644 16.7857 16.2254C16.8107 15.6985 16.7972 15.0298 16.7822 14.2847C16.7801 14.1825 16.778 14.0789 16.776 13.9741C16.7594 13.1159 16.7478 12.1849 16.8008 11.3274C16.8532 10.4803 16.9709 9.65183 17.2401 9.0212C17.5151 8.37693 18.0066 7.82907 18.8192 7.82907C19.512 7.82907 20.0304 8.12131 20.3798 8.60223C20.5255 8.80278 20.6379 9.03038 20.7252 9.27256C20.7469 8.64796 20.7712 8.11477 20.7985 7.70481C20.8619 6.75213 21.1187 6.00973 21.5181 5.50097C21.9231 4.98501 22.4781 4.71295 23.0609 4.75702C24.2384 4.84604 25.0468 6.10121 24.9832 7.7572C24.9306 9.12691 25.0749 12.5223 25.2602 15.9594C25.3814 14.1708 25.4808 12.4079 25.5179 11.0344C25.5486 9.89651 25.7483 8.99186 26.063 8.3507C26.3665 7.73231 26.8476 7.23658 27.4824 7.22334C28.1263 7.2099 28.6159 7.69693 28.922 8.31627C29.238 8.95586 29.4371 9.86945 29.4677 11.0348C29.5345 13.5785 29.5267 17.7615 29.5025 21.0556C30.0496 19.2239 30.6333 17.2043 30.9609 15.8917C31.1524 15.1246 31.4715 14.5338 31.8917 14.1777C32.331 13.8053 32.8891 13.695 33.4002 13.9573C33.8744 14.2006 34.1982 14.7096 34.3679 15.3328C34.5406 15.967 34.5735 16.7804 34.4179 17.7472C33.9948 20.3749 33.7558 23.4856 33.5215 26.5354C33.4311 27.7115 33.3415 28.8786 33.2422 30.0055C33.0607 32.0662 32.5181 34.2042 31.9356 35.9697C31.3554 37.7282 30.7223 39.1568 30.3409 39.7936C30.3281 39.815 30.2964 39.8915 30.2618 40.0535C37.2113 36.8685 42.0388 29.8421 42.0388 21.6869C42.0388 16.4286 40.032 11.6401 36.7439 8.04791C36.2867 8.39001 35.7192 8.59264 35.1043 8.59264C33.589 8.59264 32.3622 7.3624 32.3622 5.84664C32.3622 5.40509 32.4663 4.98778 32.6513 4.61805C29.5372 2.6432 25.8455 1.5 21.8874 1.5ZM33.2565 3.8177C29.9732 1.71734 26.0723 0.5 21.8874 0.5C10.205 0.5 0.736016 9.98649 0.736016 21.6869C0.736016 24.0458 1.12089 26.3147 1.83116 28.434C1.0334 28.9143 0.5 29.7896 0.5 30.7891C0.5 32.3048 1.72689 33.5351 3.24215 33.5351C3.58974 33.5351 3.92215 33.4703 4.22806 33.3523C6.81784 37.2779 10.6773 40.2893 15.2202 41.7995C16.0826 42.6415 16.9622 43.2164 17.6393 43.5389L18.2295 50.1605L18.5009 50.2791C23.8551 52.6195 28.4703 51.2708 30.1695 50.2495L30.4344 50.0903L30.4104 49.7822C30.2345 47.5204 30.01 43.485 30.1357 41.2022C37.7187 37.9825 43.0388 30.4573 43.0388 21.6869C43.0388 16.1385 40.9095 11.0879 37.4246 7.31072C37.6918 6.88685 37.8465 6.38474 37.8465 5.84664C37.8465 4.33087 36.6196 3.10063 35.1043 3.10063C34.3922 3.10063 33.7438 3.37234 33.2565 3.8177ZM33.4929 5.18185C33.4086 5.38671 33.3622 5.61119 33.3622 5.84664C33.3622 6.81173 34.1429 7.59264 35.1043 7.59264C35.4494 7.59264 35.7712 7.49203 36.042 7.31841C35.2533 6.53867 34.4007 5.82363 33.4929 5.18185ZM36.6956 6.55854C35.8974 5.77457 35.0375 5.05346 34.1238 4.40323C34.4032 4.21225 34.7409 4.10063 35.1043 4.10063C36.0657 4.10063 36.8465 4.88154 36.8465 5.84664C36.8465 6.10027 36.7925 6.34118 36.6956 6.55854ZM4.53595 31.9584C4.81457 31.649 4.9843 31.239 4.9843 30.7891C4.9843 29.824 4.20351 29.0431 3.24215 29.0431C3.20026 29.0431 3.15871 29.0446 3.11755 29.0475C3.51359 30.0602 3.98894 31.033 4.53595 31.9584ZM2.18256 29.4031C2.60065 30.4735 3.10316 31.5015 3.68189 32.479C3.54139 32.5156 3.39403 32.5351 3.24215 32.5351C2.2808 32.5351 1.5 31.7542 1.5 30.7891C1.5 30.224 1.76768 29.7221 2.18256 29.4031ZM22.3047 6.11845C22.0661 6.42238 21.8509 6.95075 21.7963 7.77122C21.6088 10.5875 21.5614 19.3934 21.5614 23.46L20.5619 23.483C20.4438 20.9201 20.1844 15.3997 20.0902 13.7961C20.0674 13.4077 20.0658 12.9649 20.0641 12.5205C20.0636 12.3712 20.063 12.2216 20.0617 12.0739C20.0562 11.4723 20.0377 10.8846 19.9618 10.3668C19.8848 9.84069 19.7561 9.44507 19.5708 9.18999C19.4076 8.96534 19.1885 8.82907 18.8192 8.82907C18.5697 8.82907 18.3531 8.96093 18.1598 9.4138C17.9607 9.88031 17.8498 10.5664 17.7989 11.3891C17.7487 12.2013 17.7592 13.0951 17.7758 13.9547C17.7778 14.0583 17.7799 14.1615 17.782 14.2642C17.797 15.0022 17.8113 15.7093 17.7845 16.2729C17.7457 17.0889 17.7458 17.987 17.7458 18.9074C17.7458 19.3745 17.7459 19.8473 17.7408 20.318C17.7261 21.6878 17.6683 23.0437 17.4162 24.0539C17.0525 25.5111 16.8016 28.9117 16.7224 30.46L16.6648 31.5847L15.8692 30.7877C15.572 30.49 15.1303 29.9785 14.7475 29.3886C14.3725 28.8109 14.0123 28.0954 13.9546 27.4024C13.8482 26.123 13.09 24.4697 11.6514 23.2504C11.3046 22.9564 10.9656 22.7622 10.6834 22.6626C10.3852 22.5572 10.2212 22.5804 10.1677 22.6036C10.1513 22.6107 10.1481 22.6155 10.144 22.6228C10.1371 22.6349 10.1171 22.679 10.1182 22.7803C10.1206 22.9948 10.2167 23.3673 10.5249 23.9286C11.2188 25.1924 11.6125 26.9247 11.9657 28.9446C12.0922 29.6678 12.2136 30.4287 12.341 31.2271C12.5752 32.6952 12.8296 34.2901 13.1731 36.0107C13.6174 38.2357 14.7134 39.8814 15.8413 41.0075C16.7709 41.9356 17.7105 42.4988 18.2993 42.7379L18.5821 42.8528L19.1726 49.4783C23.809 51.4006 27.7641 50.379 29.3891 49.5398C29.2095 47.1234 28.9929 43.0204 29.1582 40.8223C29.1831 40.492 29.2172 40.1935 29.264 39.9441C29.308 39.7091 29.3722 39.4647 29.483 39.2797C29.8096 38.7344 30.4156 37.3851 30.986 35.6564C31.554 33.9347 32.0736 31.8761 32.2461 29.9177C32.3429 28.8184 32.4312 27.6687 32.5208 26.5028C32.7563 23.4376 33.0004 20.2599 33.4306 17.5882C33.5699 16.7227 33.5291 16.0585 33.4031 15.5955C33.274 15.1217 33.0742 14.914 32.9437 14.847C32.85 14.7989 32.7221 14.7847 32.5382 14.9405C32.3351 15.1127 32.0938 15.4824 31.9312 16.1338C31.3607 18.4196 30.0347 22.7831 29.4452 24.6728L28.4679 24.5173C28.5073 21.5216 28.5622 14.6433 28.4681 11.061C28.4397 9.98035 28.2552 9.22422 28.0255 8.75927C27.7857 8.27409 27.5673 8.22178 27.5032 8.22312C27.4299 8.22465 27.2029 8.29781 26.9607 8.79134C26.7296 9.2621 26.5458 10.0124 26.5175 11.0614C26.4226 14.5784 25.9255 20.5902 25.6895 23.1513L24.6928 23.1389C24.4184 19.0563 23.8883 10.2111 23.984 7.71883C24.0384 6.30134 23.3717 5.78336 22.9855 5.75417C22.7866 5.73913 22.5376 5.8217 22.3047 6.11845ZM23.1765 25.649L29.6924 34.9536H16.9379L23.1765 25.649ZM23.1945 27.4179L21.5269 29.905C22.6428 29.5335 23.8572 29.5476 24.9656 29.9471L23.1945 27.4179ZM20.967 31.2619C22.3255 30.4281 24.0455 30.4281 25.404 31.2619C24.0455 32.0958 22.3255 32.0958 20.967 31.2619ZM20.1676 31.9324C22.0089 33.2295 24.4873 33.2052 26.3047 31.8592L27.7713 33.9536H18.8124L20.1676 31.9324Z" fill="black"/>
</svg>
