<svg width="44" height="57" viewBox="0 0 44 57" fill="none" xmlns="http://www.w3.org/2000/svg">
<path fill-rule="evenodd" clip-rule="evenodd" d="M22.049 8.32837C10.9331 8.32837 1.92188 17.3396 1.92188 28.4555C1.92188 33.5729 3.83104 38.2432 6.97671 41.7948L6.22812 42.4578C2.92672 38.7304 0.921875 33.8265 0.921875 28.4555C0.921875 16.7873 10.3808 7.32837 22.049 7.32837C23.1885 7.32837 24.3073 7.41862 25.3984 7.59247L25.2411 8.58001C24.2018 8.41443 23.1356 8.32837 22.049 8.32837ZM42.1762 28.4555C42.1762 22.9073 39.9319 17.8843 36.3006 14.243L37.0087 13.5369C40.8193 17.358 43.1762 22.632 43.1762 28.4555C43.1762 40.1237 33.7172 49.5827 22.049 49.5827C19.8067 49.5827 17.6451 49.2332 15.6162 48.5853L15.9204 47.6327C17.8521 48.2495 19.9112 48.5827 22.049 48.5827C33.1649 48.5827 42.1762 39.5714 42.1762 28.4555Z" fill="black"/>
<path fill-rule="evenodd" clip-rule="evenodd" d="M26.6223 4.30713L37.2601 6.08009L34.8962 20.8548C35.2113 18.609 34.9598 14.1027 31.1138 12.3445C26.9769 10.4534 26.0314 9.38961 26.6223 4.30713ZM20.1927 20.8187C21.2278 20.515 22.3514 20.2563 23.3815 20.0524L22.9125 22.8078C22.242 22.9571 21.5616 23.127 20.9249 23.3138C20.0845 23.5605 19.3742 23.8212 18.8751 24.0787C18.6258 24.2073 18.4727 24.3132 18.3909 24.385C18.3197 24.6619 18.224 25.0607 18.1029 25.5656L18.1028 25.5659L18.1027 25.5662C18.0268 25.8828 17.9408 26.2412 17.8445 26.6375C17.5753 27.7458 17.2358 29.108 16.8394 30.5514C16.0553 33.4066 15.0201 36.6902 13.8249 38.9548C11.9143 42.575 7.92902 46.5477 6.20778 48.0688L4.48584 46.1203C6.15293 44.6471 9.84263 40.9291 11.5252 37.7411C12.5757 35.7506 13.5499 32.7106 14.3319 29.8628C14.7186 28.4548 15.0513 27.1206 15.3177 26.0237C15.4052 25.6634 15.4867 25.3236 15.5611 25.0138C15.7089 24.3978 15.8284 23.9 15.9103 23.5929C16.05 23.0687 16.3829 22.6883 16.6717 22.434C16.9712 22.1703 17.3269 21.9514 17.683 21.7677C18.3964 21.3997 19.2878 21.0843 20.1927 20.8187ZM18.352 24.4223C18.3488 24.4258 18.3475 24.4276 18.3475 24.4276C18.3475 24.4276 18.3481 24.427 18.3492 24.4258C18.3499 24.4249 18.3509 24.4237 18.352 24.4223ZM31.2582 21.8265C29.7883 23.2965 26.5051 26.4826 24.8785 27.7477C24.5631 27.993 24.2817 28.2572 24.0284 28.5366C23.1514 29.7603 22.9271 30.8598 22.6315 32.3085C22.3707 33.5868 22.0544 35.137 21.1853 37.2842C19.8478 40.5885 17.8721 41.6127 16.6334 41.7728C17.7676 42.047 19.0271 41.8838 20.1865 41.1425C21.3887 40.3738 22.3925 39.046 23.1101 37.1543C23.4482 36.2628 23.7233 35.414 23.9723 34.6412L23.9958 34.568C24.2388 33.8138 24.4535 33.1473 24.6888 32.5355C25.1719 31.2795 25.6848 30.4148 26.475 29.8003C28.2525 28.4177 31.6514 25.1108 33.097 23.6653L33.1401 23.54C33.5359 22.3907 32.3656 21.3251 31.2582 21.8265Z" fill="white"/>
<path fill-rule="evenodd" clip-rule="evenodd" d="M25.2204 5.48994C25.4406 4.12691 26.7241 3.2005 28.0871 3.42075L36.124 4.71938C37.487 4.93963 38.4134 6.22313 38.1932 7.58616L36.4174 18.5755L38.6364 18.5755C39.6699 18.5755 40.2886 19.4419 40.2998 20.291C40.3118 21.1981 39.6755 22.072 38.3937 22.3124C37.1798 22.54 36.3288 22.621 35.7597 22.646L35.533 24.0492C35.9686 24.3242 36.5342 24.7019 37.0724 25.1029C37.7181 25.5839 38.3954 26.1493 38.7176 26.6327C39.127 27.2467 39.2291 28.0454 38.6927 28.6039C38.1859 29.1317 37.3098 29.2169 36.2918 28.9316C34.9941 28.5679 33.6312 27.9011 32.7566 27.418C32.6632 27.4141 32.569 27.4048 32.4745 27.3901C32.6296 27.4938 32.7819 27.6104 32.9356 27.7415C33.4149 28.15 33.9198 28.7121 34.5838 29.4512C34.772 29.6606 34.9729 29.8843 35.1896 30.1226C36.282 31.3243 36.4092 32.5196 35.8032 33.3149C35.2433 34.0498 34.1264 34.2583 33.352 33.5807C32.5929 32.9165 31.4629 31.4674 30.7711 30.5311C30.5831 30.2767 30.3288 30.0853 30.0386 29.9826L28.6558 29.4931C28.5764 29.5716 28.4978 29.6521 28.4198 29.7349C28.7597 29.9452 29.1522 30.2023 29.5302 30.4757C30.1064 30.8924 30.7233 31.3986 31.0216 31.8626C31.3433 32.363 31.7068 33.0929 31.9949 33.7368C32.1401 34.0615 32.2695 34.3716 32.3677 34.6291C32.4596 34.8702 32.5412 35.1078 32.5674 35.265C32.6029 35.478 32.5284 35.6583 32.4541 35.7762C32.378 35.897 32.2758 35.9966 32.1734 36.0761C31.9671 36.236 31.6936 36.3652 31.3958 36.4422C30.7998 36.5964 29.9962 36.5649 29.3361 35.9928C28.8821 35.5994 28.55 35.067 28.317 34.5782C28.0029 33.9195 27.4873 33.4323 26.889 33.3282L26.3272 33.2305C26.1438 33.6929 25.9618 34.1875 25.7711 34.7057C25.7435 34.7809 25.7156 34.8565 25.6876 34.9326C25.4153 35.6716 25.1248 36.4496 24.7952 37.2166C24.1478 38.7236 23.3328 40.2309 22.1564 41.3663C21.4278 42.5738 20.6626 43.2741 18.8566 44.9269C18.5798 45.1802 18.2785 45.4558 17.9492 45.7591C16.5758 47.0241 15.6951 49.2561 15.2297 51.0417C14.9326 52.1817 13.9017 53.1713 12.5971 53.023C7.56444 52.4511 4.47275 49.5503 3.02014 47.3029C2.37433 46.3037 2.74763 45.0937 3.54304 44.392C4.7112 43.3615 6.1766 41.9606 7.51054 40.4548C8.85057 38.9423 10.0309 37.3539 10.6586 35.947C11.5819 33.8775 12.4024 30.9915 13.1642 28.3116C13.1887 28.2255 13.2131 28.1395 13.2374 28.0539C13.626 26.6876 13.9995 25.3852 14.3606 24.3062C14.7156 23.2453 15.0786 22.3358 15.4626 21.7982C15.7964 21.3309 16.3559 20.9293 16.9776 20.5861C17.6108 20.2366 18.3614 19.9197 19.1314 19.6415C20.5395 19.1328 22.0518 18.74 23.1163 18.5115L25.2204 5.48994ZM22.9446 19.574C21.952 19.8017 20.6686 20.1494 19.4712 20.582C18.7289 20.8501 18.0315 21.1467 17.4608 21.4616C16.8786 21.783 16.4783 22.0968 16.2764 22.3794C15.9908 22.7793 15.6674 23.5522 15.3089 24.6235C14.9564 25.6769 14.5892 26.9566 14.1993 28.3274C14.1714 28.4256 14.1434 28.5242 14.1152 28.6232C13.3625 31.2717 12.5251 34.2178 11.5719 36.3544C10.8815 37.9018 9.62051 39.5812 8.25905 41.118C6.89151 42.6616 5.39524 44.0916 4.20458 45.1419C3.67941 45.6052 3.5499 46.2803 3.85999 46.76C5.18541 48.8107 8.03417 51.4981 12.71 52.0294C13.3919 52.1069 14.0549 51.5843 14.262 50.7895C14.7377 48.9644 15.6768 46.4926 17.2718 45.0236C17.6005 44.7209 17.8991 44.4473 18.1715 44.1976C18.7088 43.7053 19.1442 43.3064 19.5077 42.9612C18.5412 43.264 17.4292 43.3669 16.1435 43.2092L16.2652 42.2166C18.6104 42.5042 20.2184 41.8259 21.4181 40.6887C22.4737 39.6882 23.2379 38.3083 23.8764 36.8219C24.1945 36.0815 24.4771 35.3256 24.7493 34.5869C24.7773 34.5107 24.8053 34.4347 24.8332 34.3589C25.0743 33.7036 25.3103 33.0622 25.5538 32.4767C25.6324 32.2877 25.7122 32.1034 25.7939 31.9249C26.2425 30.9446 26.7347 30.1783 27.261 29.5386C27.5632 29.1713 27.8743 28.8486 28.191 28.5532C28.7005 28.078 29.238 27.6626 29.7655 27.2549C29.9524 27.1105 30.138 26.9671 30.3207 26.8223C31.0682 26.2298 31.8151 25.5797 32.5542 24.6558C33.683 23.2449 33.4742 22.3213 33.0823 21.9036C32.6449 21.4375 31.7153 21.2705 30.7991 21.8432C29.8722 22.4224 29.0459 23.2722 28.1302 24.2138C28.0499 24.2964 27.9689 24.3796 27.8871 24.4635C26.8918 25.4838 25.7932 26.57 24.4184 27.3455C23.8185 27.6839 23.2358 27.8095 22.6864 27.762C22.1408 27.7148 21.6639 27.5001 21.265 27.2144C20.48 26.652 19.9494 25.782 19.6927 25.1585L20.6174 24.7778C20.8294 25.2926 21.263 25.9828 21.8474 26.4014C22.1332 26.6062 22.4422 26.7372 22.7726 26.7657C23.0992 26.794 23.4823 26.7254 23.9271 26.4745C24.1402 26.3543 24.3466 26.2254 24.5474 26.0892L24.4512 26.0746C23.0767 25.8661 22.1363 24.5764 22.358 23.204L22.9446 19.574ZM25.6374 25.243C26.1699 24.7802 26.6723 24.2768 27.1712 23.7652C27.2568 23.6776 27.3423 23.5895 27.4281 23.5012C28.3224 22.5805 29.2337 21.6423 30.2691 20.9952C31.4956 20.2286 32.9766 20.3295 33.8115 21.2193C34.6918 22.1576 34.617 23.6781 33.3351 25.2805C33.012 25.6843 32.688 26.0393 32.3656 26.3594L32.62 26.4006C33.438 26.5331 34.2084 25.9773 34.3406 25.1592L37.206 7.42664C37.3381 6.60882 36.7823 5.83872 35.9644 5.70658L27.9276 4.40794C27.1098 4.27579 26.3397 4.83164 26.2076 5.64946L23.3452 23.3636C23.2122 24.187 23.7764 24.9608 24.6011 25.0859L25.6374 25.243ZM30.7601 27.7491C30.6194 27.8592 30.4813 27.966 30.3453 28.071C30.0568 28.294 29.7781 28.5094 29.5058 28.7332L30.3723 29.0399C30.8585 29.212 31.2739 29.5288 31.5753 29.9368C32.2788 30.8889 33.3467 32.2473 34.0105 32.8281C34.3075 33.0879 34.7642 33.0286 35.0078 32.7089C35.2054 32.4495 35.366 31.8034 34.4496 30.7953C34.2131 30.5352 34.0001 30.2982 33.8055 30.0817C33.1549 29.3579 32.7109 28.8639 32.2868 28.5024C31.8256 28.1092 31.4044 27.8893 30.7601 27.7491ZM26.7289 32.2853L27.0604 32.343C28.0891 32.522 28.8231 33.316 29.2197 34.1479C29.4219 34.5722 29.6818 34.9691 29.991 35.2372C30.3354 35.5356 30.7706 35.5711 31.1455 35.4741C31.3214 35.4286 31.4599 35.3591 31.5445 35.2979C31.5205 35.2229 31.4842 35.1188 31.4333 34.9854C31.3432 34.7491 31.2214 34.4566 31.0821 34.1451C30.801 33.5168 30.4615 32.8405 30.1804 32.4034C29.9966 32.1174 29.5284 31.7085 28.9442 31.286C28.541 30.9944 28.1177 30.7208 27.7706 30.5097C27.4065 30.9995 27.0575 31.5764 26.7289 32.2853ZM34.1916 27.0357C34.916 27.3874 35.7604 27.7442 36.5616 27.9687C37.4552 28.2191 37.8513 28.0364 37.9715 27.9113C38.062 27.817 38.1458 27.5777 37.8856 27.1874C37.6721 26.8672 37.1326 26.3947 36.475 25.9048C36.0982 25.624 35.7057 25.3542 35.3589 25.1265L35.3278 25.3187C35.2086 26.0565 34.7779 26.6664 34.1916 27.0357ZM35.9229 21.6358C36.4403 21.6032 37.1843 21.5217 38.2095 21.3295C39.0704 21.1681 39.3047 20.6693 39.2999 20.3041C39.2943 19.881 39.009 19.5755 38.6364 19.5755L36.2558 19.5755L35.9229 21.6358ZM28.0888 10.5587C28.8348 9.63469 29.9984 9.11115 31.4176 9.34129C31.6971 9.3866 32.0595 9.4945 32.2342 9.81546C32.436 10.1861 32.2444 10.5357 32.1146 10.7067C31.8386 11.0703 31.2935 11.4006 30.7854 11.6164C30.6543 11.6722 30.5477 11.7408 30.4668 11.8136C30.1738 12.0772 29.9114 12.5581 29.8613 13.0846C29.8132 13.5897 29.9604 14.118 30.4577 14.5443C30.653 14.7117 30.8774 14.8155 31.1163 14.8724C31.3804 14.9354 31.6291 15.028 31.8407 15.1405C32.0439 15.2486 32.249 15.3942 32.3869 15.5815C32.531 15.7773 32.6525 16.11 32.4455 16.4398C32.2799 16.7037 31.9798 16.8219 31.7213 16.8835C30.9177 17.0748 29.9067 17.0199 29.0356 16.5849C28.1419 16.1386 27.4148 15.2992 27.2268 13.9906C27.0459 12.7321 27.3559 11.4665 28.0888 10.5587ZM28.8669 11.1868C28.3295 11.8525 28.0703 12.8302 28.2166 13.8484C28.3557 14.8164 28.8675 15.3832 29.4823 15.6903C30.0326 15.9651 30.6799 16.0366 31.2343 15.9587C31.1312 15.9152 31.0129 15.8758 30.8843 15.8452C30.5136 15.7568 30.1394 15.5886 29.8069 15.3035C29.0332 14.6404 28.7908 13.7782 28.8658 12.99C28.9387 12.2232 29.3117 11.5077 29.7978 11.0703C29.9696 10.9157 30.1728 10.7902 30.3943 10.6961C30.6116 10.6038 30.817 10.4942 30.9855 10.3828C31.0255 10.3564 31.062 10.3307 31.0951 10.3061C30.1163 10.1969 29.3642 10.5709 28.8669 11.1868ZM31.6593 25.0852C30.5122 24.5419 29.9444 23.642 29.7919 23.1844L30.7406 22.8681C30.8112 23.0801 31.1987 23.7605 32.0873 24.1815L31.6593 25.0852Z" fill="black"/>
</svg>
