<svg width="52" height="52" viewBox="0 0 52 52" fill="none" xmlns="http://www.w3.org/2000/svg">
<path fill-rule="evenodd" clip-rule="evenodd" d="M26 14C19.3726 14 14 19.3726 14 26H8C8 16.0589 16.0589 8 26 8V14ZM26 38C32.6274 38 38 32.6274 38 26H44C44 35.9411 35.9411 44 26 44V38Z" fill="white"/>
<path fill-rule="evenodd" clip-rule="evenodd" d="M26.1794 6.05225C15.0635 6.05225 6.05225 15.0635 6.05225 26.1794C6.05225 37.2953 15.0635 46.3065 26.1794 46.3065C37.2953 46.3065 46.3065 37.2953 46.3065 26.1794C46.3065 15.0635 37.2953 6.05225 26.1794 6.05225ZM5.05225 26.1794C5.05225 14.5112 14.5112 5.05225 26.1794 5.05225C37.8476 5.05225 47.3065 14.5112 47.3065 26.1794C47.3065 37.8476 37.8476 47.3065 26.1794 47.3065C14.5112 47.3065 5.05225 37.8476 5.05225 26.1794Z" fill="black"/>
<path d="M18.1048 14.7453C17.9591 14.8728 17.7952 14.9608 17.6131 15.0093C17.4371 15.0518 17.1943 15.0731 16.8848 15.0731V14.5086H17.0304C17.3582 14.5086 17.6101 14.4449 17.7861 14.3174C17.9621 14.1839 18.0683 13.9745 18.1048 13.6892H18.7239V20.0623H18.1048V14.7453Z" fill="black"/>
<path d="M34.7934 36.4571H31.8071V35.8926L34.848 31.6135H35.4125V35.8926H36.2501V36.4571H35.4125V37.9866H34.7934V36.4571ZM34.7934 35.8926V32.6605L32.4717 35.8926H34.7934Z" fill="black"/>
<path d="M49.0824 26.1794C49.0824 23.1717 48.49 20.1934 47.339 17.4147C46.188 14.6359 44.501 12.1111 42.3742 9.98433C40.2475 7.85756 37.7226 6.17052 34.9439 5.01953C32.1651 3.86853 29.1869 3.27612 26.1792 3.27612L26.1792 26.1794H49.0824Z" fill="white"/>
<path d="M3.27595 26.1793C3.27595 29.187 3.86836 32.1652 5.01936 34.944C6.17035 37.7227 7.8574 40.2476 9.98416 42.3743C12.1109 44.5011 14.6358 46.1881 17.4145 47.3391C20.1933 48.4901 23.1715 49.0825 26.1792 49.0825L26.1792 26.1793L3.27595 26.1793Z" fill="white"/>
<path d="M32.1099 19.5524L34.7683 17.0305C35.0354 16.7756 35.2327 16.5267 35.3601 16.2839C35.4876 16.0412 35.5513 15.762 35.5513 15.4463C35.5513 15.0579 35.4299 14.7483 35.1871 14.5177C34.9444 14.281 34.6409 14.1626 34.2767 14.1626C33.8518 14.1626 33.515 14.2901 33.2661 14.545C33.0233 14.7999 32.8868 15.1216 32.8564 15.5101H32.2373C32.2555 15.1338 32.3526 14.803 32.5287 14.5177C32.7108 14.2263 32.9535 14.0018 33.257 13.844C33.5605 13.6801 33.9034 13.5981 34.2858 13.5981C34.6318 13.5981 34.9474 13.674 35.2327 13.8258C35.524 13.9714 35.7516 14.1808 35.9155 14.454C36.0854 14.721 36.1704 15.0306 36.1704 15.3826C36.1704 15.7771 36.0885 16.1352 35.9246 16.4569C35.7668 16.7786 35.5179 17.1003 35.178 17.422L32.9657 19.4978H36.3161V20.0623H32.1099V19.5524Z" fill="black"/>
<path d="M17.8386 38.0776C17.3773 38.0776 16.9767 37.9775 16.6368 37.7772C16.2969 37.5708 16.0329 37.2947 15.8447 36.9487C15.6626 36.6027 15.5594 36.2234 15.5352 35.8107H16.1543C16.1907 36.3144 16.3485 36.7241 16.6277 37.0397C16.9069 37.3554 17.3075 37.5132 17.8295 37.5132C18.1269 37.5132 18.4 37.4434 18.6489 37.3038C18.8977 37.1642 19.095 36.9669 19.2406 36.712C19.3924 36.451 19.4683 36.1475 19.4683 35.8015C19.4683 35.4556 19.3863 35.1582 19.2224 34.9093C19.0586 34.6605 18.837 34.4723 18.5578 34.3448C18.2847 34.2113 17.9873 34.1445 17.6656 34.1445H17.5472V33.5801L19.0403 32.178H15.8538V31.6135H19.7596V32.2053L18.2118 33.6529C18.752 33.75 19.1982 33.9807 19.5502 34.3448C19.9083 34.709 20.0874 35.1885 20.0874 35.7833C20.0874 36.2082 19.9872 36.5967 19.7869 36.9487C19.5866 37.3007 19.3135 37.5769 18.9675 37.7772C18.6276 37.9775 18.2513 38.0776 17.8386 38.0776Z" fill="black"/>
<path fill-rule="evenodd" clip-rule="evenodd" d="M25.6792 0.5L26.1792 0.5C29.5515 0.5 32.8907 1.16422 36.0063 2.45472C39.1218 3.74523 41.9527 5.63676 44.3372 8.0213C46.7218 10.4059 48.6133 13.2367 49.9038 16.3523C51.1943 19.4678 51.8585 22.8071 51.8585 26.1793V26.6793H25.6792L25.6792 0.5ZM26.6792 1.50507L26.6792 25.6793H50.8535C50.7913 22.6087 50.1564 19.5751 48.9799 16.735C47.7397 13.7407 45.9218 11.0201 43.6301 8.72841C41.3384 6.43672 38.6178 4.61886 35.6236 3.3786C32.7834 2.20217 29.7498 1.56728 26.6792 1.50507Z" fill="black"/>
<path fill-rule="evenodd" clip-rule="evenodd" d="M26.6792 51.8586L26.1792 51.8586C22.8069 51.8586 19.4677 51.1944 16.3521 49.9039C13.2366 48.6134 10.4057 46.7219 8.02116 44.3373C5.63661 41.9528 3.74509 39.1219 2.45458 36.0064C1.16407 32.8908 0.499855 29.5516 0.499855 26.1793L0.499855 25.6793L26.6792 25.6793L26.6792 51.8586ZM25.6792 50.8536L25.6792 26.6793L1.50492 26.6793C1.56714 29.7499 2.20202 32.7835 3.37846 35.6237C4.61871 38.6179 6.43658 41.3385 8.72827 43.6302C11.02 45.9219 13.7406 47.7398 16.7348 48.98C19.575 50.1565 22.6086 50.7914 25.6792 50.8536Z" fill="black"/>
</svg>
