<svg width="46" height="51" viewBox="0 0 46 51" fill="none" xmlns="http://www.w3.org/2000/svg">
<path fill-rule="evenodd" clip-rule="evenodd" d="M22.5 11C14.4919 11 8 17.4919 8 25.5H2C2 14.1782 11.1782 5 22.5 5V11ZM22.5 40C30.5081 40 37 33.5081 37 25.5H43C43 36.8218 33.8218 46 22.5 46V40Z" fill="white"/>
<path fill-rule="evenodd" clip-rule="evenodd" d="M29.2041 25.5815C29.2041 22.0161 26.3137 19.1257 22.7483 19.1257V13.1257C29.6274 13.1257 35.2041 18.7024 35.2041 25.5815H29.2041ZM16.2925 25.5815C16.2925 29.1469 19.1828 32.0373 22.7483 32.0373V38.0373C15.8691 38.0373 10.2925 32.4607 10.2925 25.5815H16.2925Z" fill="white"/>
<path fill-rule="evenodd" clip-rule="evenodd" d="M22.7485 21.1172C20.2829 21.1172 18.2842 23.1159 18.2842 25.5815C18.2842 28.047 20.2829 30.0458 22.7485 30.0458C25.214 30.0458 27.2128 28.047 27.2128 25.5815C27.2128 23.1159 25.214 21.1172 22.7485 21.1172ZM17.2842 25.5815C17.2842 22.5636 19.7306 20.1172 22.7485 20.1172C25.7663 20.1172 28.2128 22.5636 28.2128 25.5815C28.2128 28.5993 25.7663 31.0458 22.7485 31.0458C19.7306 31.0458 17.2842 28.5993 17.2842 25.5815Z" fill="black"/>
<path fill-rule="evenodd" clip-rule="evenodd" d="M37.4977 14.8154C35.9255 14.4378 34.3448 15.4062 33.9672 16.9784L32.9948 16.7449C33.5014 14.6357 35.622 13.3365 37.7312 13.8431C39.8405 14.3496 41.1397 16.4702 40.6331 18.5794C40.1265 20.6887 38.0059 21.9879 35.8967 21.4813L36.1302 20.5089C37.7024 20.8865 39.2831 19.9181 39.6607 18.3459C40.0383 16.7737 39.0699 15.193 37.4977 14.8154Z" fill="black"/>
<path fill-rule="evenodd" clip-rule="evenodd" d="M36.8136 15.9165C35.8495 15.9165 35.0679 16.6981 35.0679 17.6623C35.0679 18.6264 35.8495 19.408 36.8136 19.408C37.7778 19.408 38.5594 18.6264 38.5594 17.6623C38.5594 16.6981 37.7778 15.9165 36.8136 15.9165ZM34.0679 17.6623C34.0679 16.1458 35.2972 14.9165 36.8136 14.9165C38.3301 14.9165 39.5594 16.1458 39.5594 17.6623C39.5594 19.1787 38.3301 20.408 36.8136 20.408C35.2972 20.408 34.0679 19.1787 34.0679 17.6623Z" fill="black"/>
<path fill-rule="evenodd" clip-rule="evenodd" d="M4.78214 36.9556C4.27494 36.9556 3.86377 37.3667 3.86377 37.8739C3.86377 38.3811 4.27494 38.7923 4.78214 38.7923C5.28934 38.7923 5.70051 38.3811 5.70051 37.8739C5.70051 37.3667 5.28934 36.9556 4.78214 36.9556ZM2.86377 37.8739C2.86377 36.8144 3.72265 35.9556 4.78214 35.9556C5.84162 35.9556 6.70051 36.8144 6.70051 37.8739C6.70051 38.9334 5.84162 39.7923 4.78214 39.7923C3.72265 39.7923 2.86377 38.9334 2.86377 37.8739Z" fill="black"/>
<path fill-rule="evenodd" clip-rule="evenodd" d="M43.9057 19.6987C43.3332 19.6987 42.8691 20.1628 42.8691 20.7353C42.8691 21.3078 43.3332 21.7719 43.9057 21.7719C44.4782 21.7719 44.9423 21.3078 44.9423 20.7353C44.9423 20.1628 44.4782 19.6987 43.9057 19.6987ZM41.8691 20.7353C41.8691 19.6105 42.7809 18.6987 43.9057 18.6987C45.0305 18.6987 45.9423 19.6105 45.9423 20.7353C45.9423 21.8601 45.0305 22.7719 43.9057 22.7719C42.7809 22.7719 41.8691 21.8601 41.8691 20.7353Z" fill="black"/>
<path fill-rule="evenodd" clip-rule="evenodd" d="M17.5203 47.3914C16.9683 47.5949 16.5747 48.1256 16.5747 48.7482C16.5747 49.5466 17.2219 50.1938 18.0203 50.1938C18.8187 50.1938 19.4659 49.5466 19.4659 48.7482C19.4659 48.1256 19.0722 47.5949 18.5203 47.3914V36.1011H17.5203V47.3914ZM18.0203 48.3026C17.7742 48.3026 17.5747 48.5021 17.5747 48.7482C17.5747 48.9943 17.7742 49.1938 18.0203 49.1938C18.2664 49.1938 18.4659 48.9943 18.4659 48.7482C18.4659 48.5021 18.2664 48.3026 18.0203 48.3026Z" fill="black"/>
<path fill-rule="evenodd" clip-rule="evenodd" d="M25.6123 1.23267V10.6885H24.6123V1.23267H25.6123Z" fill="black"/>
<path fill-rule="evenodd" clip-rule="evenodd" d="M34.568 36.4829C33.5386 36.4829 32.7041 37.3174 32.7041 38.3469C32.7041 39.3763 33.5386 40.2108 34.568 40.2108C35.5975 40.2108 36.432 39.3763 36.432 38.3469H37.432C37.432 39.9286 36.1498 41.2108 34.568 41.2108C32.9863 41.2108 31.7041 39.9286 31.7041 38.3469C31.7041 36.7651 32.9863 35.4829 34.568 35.4829V36.4829Z" fill="black"/>
<path fill-rule="evenodd" clip-rule="evenodd" d="M22.7483 4.33301C19.9296 4.33301 17.2402 4.88159 14.7803 5.87735L14.4051 4.95042C16.9822 3.90722 19.7988 3.33301 22.7483 3.33301C32.7718 3.33301 41.2458 9.96111 44.0292 19.0724L43.0729 19.3645C40.4143 10.662 32.3198 4.33301 22.7483 4.33301ZM12.5864 6.91579C5.98013 10.5202 1.5 17.5279 1.5 25.5813C1.5 29.5495 2.5873 33.2622 4.47994 36.4395L3.62082 36.9513C1.63853 33.6235 0.5 29.7346 0.5 25.5813C0.5 17.1475 5.1929 9.81055 12.1075 6.03795L12.5864 6.91579ZM43.9966 25.5813C43.9966 24.4827 43.9133 23.4038 43.7527 22.3507L44.7412 22.1999C44.9094 23.3028 44.9966 24.432 44.9966 25.5813C44.9966 37.8687 35.0357 47.8296 22.7483 47.8296C15.6272 47.8296 9.28731 44.4834 5.2159 39.2797L6.00349 38.6635C9.89353 43.6354 15.9478 46.8296 22.7483 46.8296C34.4834 46.8296 43.9966 37.3164 43.9966 25.5813Z" fill="black"/>
<path fill-rule="evenodd" clip-rule="evenodd" d="M13.7732 9.50188C8.142 12.652 4.33691 18.6727 4.33691 25.5815H3.33691C3.33691 18.2962 7.35061 11.9489 13.285 8.62915L13.7732 9.50188Z" fill="black"/>
<path fill-rule="evenodd" clip-rule="evenodd" d="M23.248 11.3977V16.2438H22.248V11.3977H23.248Z" fill="black"/>
<path fill-rule="evenodd" clip-rule="evenodd" d="M36.9912 26.1406L32.1451 26.1406L32.1451 25.1406L36.9912 25.1406L36.9912 26.1406Z" fill="black"/>
<path fill-rule="evenodd" clip-rule="evenodd" d="M29.9594 33.5587L27.3855 30.9848L28.0926 30.2777L30.6665 32.8516L29.9594 33.5587Z" fill="black"/>
<path fill-rule="evenodd" clip-rule="evenodd" d="M23.248 35.0371V39.8832H22.248V35.0371H23.248Z" fill="black"/>
<path fill-rule="evenodd" clip-rule="evenodd" d="M13.3516 26.1406L8.50547 26.1406L8.50547 25.1406L13.3516 25.1406L13.3516 26.1406Z" fill="black"/>
<path fill-rule="evenodd" clip-rule="evenodd" d="M17.4037 21.0032L14.8299 18.4294L15.537 17.7223L18.1108 20.2961L17.4037 21.0032Z" fill="black"/>
<path fill-rule="evenodd" clip-rule="evenodd" d="M14.6796 2.35392C13.5685 3.16597 12.8467 4.47907 12.8467 5.96068C12.8467 8.42623 14.8454 10.425 17.311 10.425C18.7921 10.425 20.1048 9.70363 20.9169 8.59317C20.2167 9.03909 19.3852 9.29753 18.4932 9.29753C15.9976 9.29753 13.9745 7.27443 13.9745 4.77882C13.9745 3.88627 14.2332 3.05441 14.6796 2.35392ZM11.8467 5.96068C11.8467 3.01215 14.1818 0.609265 17.1039 0.500244L17.2931 1.46992C15.9399 1.96082 14.9745 3.25771 14.9745 4.77882C14.9745 6.72215 16.5499 8.29753 18.4932 8.29753C20.0139 8.29753 21.3105 7.33257 21.8017 5.97994L22.7713 6.16939C22.6615 9.0907 20.2589 11.425 17.311 11.425C14.2931 11.425 11.8467 8.97852 11.8467 5.96068Z" fill="black"/>
<path fill-rule="evenodd" clip-rule="evenodd" d="M34.777 25.5814C34.777 18.938 29.3914 13.5525 22.748 13.5525V12.5525C29.9437 12.5525 35.777 18.3857 35.777 25.5814C35.777 32.7771 29.9437 38.6103 22.748 38.6103V37.6103C29.3914 37.6103 34.777 32.2248 34.777 25.5814Z" fill="black"/>
<path fill-rule="evenodd" clip-rule="evenodd" d="M22.7481 18.9895C19.1075 18.9895 16.1562 21.9408 16.1562 25.5813C16.1562 29.2219 19.1075 32.1732 22.7481 32.1732V33.1732C18.5552 33.1732 15.1562 29.7742 15.1562 25.5813C15.1562 21.3885 18.5552 17.9895 22.7481 17.9895V18.9895Z" fill="black"/>
</svg>
