<svg width="15" height="14" viewBox="0 0 15 14" fill="none" xmlns="http://www.w3.org/2000/svg">
<path d="M6.63626 0.541686C6.87315 -0.180561 7.90462 -0.180562 8.14152 0.541685L9.34328 4.20561C9.44923 4.52861 9.75307 4.74729 10.0959 4.74729H13.9849C14.7515 4.74729 15.0703 5.71907 14.4501 6.16544L11.3038 8.42987C11.0264 8.6295 10.9104 8.98334 11.0163 9.30634L12.2181 12.9703C12.455 13.6925 11.6205 14.2931 11.0003 13.8467L7.85404 11.5823C7.57668 11.3827 7.2011 11.3827 6.92374 11.5823L3.77748 13.8467C3.15728 14.2931 2.3228 13.6925 2.5597 12.9703L3.76146 9.30634C3.86741 8.98334 3.75135 8.6295 3.47398 8.42987L0.327729 6.16544C-0.292474 5.71907 0.0262679 4.74729 0.79288 4.74729H4.68186C5.0247 4.74729 5.32855 4.52861 5.4345 4.20561L6.63626 0.541686Z" fill="#FFE815"/>
</svg>
