<svg width="155" height="24" viewBox="0 0 155 24" fill="none" xmlns="http://www.w3.org/2000/svg">
<path d="M18.336 17.24H5.92L3.072 23H0.32L11.968 0.279999H14.304L25.28 23H21.024L18.336 17.24ZM17.536 15.544L12.32 4.344L6.784 15.544H17.536ZM24.2303 7.32H28.0063L34.3103 19.512L40.5183 7.32H42.5983L34.5983 23.32H32.7103L24.2303 7.32ZM54.2333 21.88C55.6839 21.88 56.8679 21.5387 57.7853 20.856C58.7239 20.1733 59.3213 19.2133 59.5773 17.976H62.3293C61.9453 19.6613 61.0066 20.9733 59.5133 21.912C58.0199 22.8507 56.1746 23.32 53.9773 23.32C52.1639 23.32 50.5853 22.9893 49.2413 22.328C47.8973 21.6667 46.8626 20.728 46.1373 19.512C45.4119 18.296 45.0493 16.8667 45.0493 15.224C45.0493 13.56 45.4119 12.1093 46.1373 10.872C46.8626 9.63467 47.8866 8.68533 49.2093 8.024C50.5533 7.34133 52.1213 7 53.9133 7C56.6439 7 58.7559 7.704 60.2493 9.112C61.7426 10.52 62.5106 12.5253 62.5533 15.128H48.5693V15.288C48.5693 17.3573 49.0493 18.9787 50.0093 20.152C50.9906 21.304 52.3986 21.88 54.2333 21.88ZM54.0093 8.44C52.5159 8.44 51.3106 8.89867 50.3933 9.816C49.4759 10.7333 48.8999 12.024 48.6653 13.688H59.1613C58.9479 11.9813 58.4039 10.68 57.5293 9.784C56.6546 8.888 55.4813 8.44 54.0093 8.44ZM67.8838 7.32H71.4358V10.008C71.9264 9.09067 72.6944 8.36533 73.7398 7.832C74.8064 7.27733 76.0011 7 77.3238 7C79.3931 7 81.0251 7.544 82.2198 8.632C83.4358 9.69867 84.0438 11.1493 84.0438 12.984V23H80.4918V12.696C80.4918 11.3093 80.1398 10.2533 79.4358 9.528C78.7531 8.80267 77.7504 8.44 76.4278 8.44C74.9131 8.44 73.6971 8.952 72.7798 9.976C71.8838 11 71.4358 12.3653 71.4358 14.072V23H67.8838V7.32ZM92.1338 5.496C91.4084 5.496 90.8111 5.29333 90.3418 4.888C89.8938 4.46133 89.6698 3.91733 89.6698 3.256C89.6698 2.59467 89.8938 2.06133 90.3418 1.656C90.8111 1.22933 91.4084 1.016 92.1338 1.016C92.8591 1.016 93.4458 1.22933 93.8938 1.656C94.3631 2.06133 94.5978 2.59467 94.5978 3.256C94.5978 3.91733 94.3631 4.46133 93.8938 4.888C93.4458 5.29333 92.8591 5.496 92.1338 5.496ZM90.3738 7.32H93.8938V23H90.3738V7.32ZM100.487 7.32H104.007V10.648C104.412 9.47467 105.052 8.57867 105.927 7.96C106.802 7.32 107.879 7 109.159 7C109.692 7 110.055 7.04267 110.247 7.128L109.959 9.432C109.639 9.26133 109.191 9.176 108.615 9.176C107.122 9.176 105.98 9.79467 105.191 11.032C104.402 12.2693 104.007 13.7947 104.007 15.608V23H100.487V7.32ZM119.589 23.32C116.667 23.32 115.205 21.752 115.205 18.616V8.76H112.389L112.901 7.32H115.269L116.389 2.904H118.757V7.32H123.109L122.661 8.76H118.757V19.032C118.757 20.9093 119.472 21.848 120.901 21.848C121.691 21.848 122.448 21.6453 123.173 21.24V22.712C122.277 23.1173 121.083 23.32 119.589 23.32ZM136.264 21.88C137.715 21.88 138.899 21.5387 139.816 20.856C140.755 20.1733 141.352 19.2133 141.608 17.976H144.36C143.976 19.6613 143.038 20.9733 141.544 21.912C140.051 22.8507 138.206 23.32 136.008 23.32C134.195 23.32 132.616 22.9893 131.272 22.328C129.928 21.6667 128.894 20.728 128.168 19.512C127.443 18.296 127.08 16.8667 127.08 15.224C127.08 13.56 127.443 12.1093 128.168 10.872C128.894 9.63467 129.918 8.68533 131.24 8.024C132.584 7.34133 134.152 7 135.944 7C138.675 7 140.787 7.704 142.28 9.112C143.774 10.52 144.542 12.5253 144.584 15.128H130.6V15.288C130.6 17.3573 131.08 18.9787 132.04 20.152C133.022 21.304 134.43 21.88 136.264 21.88ZM136.04 8.44C134.547 8.44 133.342 8.89867 132.424 9.816C131.507 10.7333 130.931 12.024 130.696 13.688H141.192C140.979 11.9813 140.435 10.68 139.56 9.784C138.686 8.888 137.512 8.44 136.04 8.44ZM150.683 1.144H154.235V23H150.683V1.144Z" fill="#1078D8"/>
</svg>
